HIERARCHY
ROOT root
{
	OFFSET 0.000000 0.000000 0.000000
	CHANNELS 6 Xposition Yposition Zposition Zrotation Yrotation Xrotation
	JOINT lhip
	{
		OFFSET 0.058581 -0.082280 -0.017664
		CHANNELS 3 Zrotation Yrotation Xrotation
		JOINT lknee
		{
			OFFSET 0.043451 -0.386469 0.008037
			CHANNELS 3 Zrotation Yrotation Xrotation
			JOINT lankle
			{
				OFFSET -0.014790 -0.426874 -0.037428
				CHANNELS 3 Zrotation Yrotation Xrotation
				JOINT ltoe
				{
					OFFSET 0.041054 -0.060286 0.122042
					CHANNELS 3 Zrotation Yrotation Xrotation
					End Site
					{
						OFFSET 0.000000 0.000000 0.000000
					}
				}
			}
		}
	}
	JOINT rhip
	{
		OFFSET -0.060310 -0.090513 -0.013543
		CHANNELS 3 Zrotation Yrotation Xrotation
		JOINT rknee
		{
			OFFSET -0.043257 -0.383688 -0.004843
			CHANNELS 3 Zrotation Yrotation Xrotation
			JOINT rankle
			{
				OFFSET 0.019056 -0.420046 -0.034562
				CHANNELS 3 Zrotation Yrotation Xrotation
				JOINT rtoe
				{
					OFFSET -0.034840 -0.062106 0.130323
					CHANNELS 3 Zrotation Yrotation Xrotation
					End Site
					{
						OFFSET 0.000000 0.000000 0.000000
					}
				}
			}
		}
	}
	JOINT lowerback
	{
		OFFSET 0.004439 0.124404 -0.038385
		CHANNELS 3 Zrotation Yrotation Xrotation
		JOINT upperback
		{
			OFFSET 0.004488 0.137956 0.026820
			CHANNELS 3 Zrotation Yrotation Xrotation
			JOINT chest
			{
				OFFSET -0.002265 0.056032 0.002855
				CHANNELS 3 Zrotation Yrotation Xrotation
				JOINT lowerneck
				{
					OFFSET -0.013390 0.211636 -0.033468
					CHANNELS 3 Zrotation Yrotation Xrotation
					JOINT upperneck
					{
						OFFSET 0.010113 0.088937 0.050410
						CHANNELS 3 Zrotation Yrotation Xrotation
						End Site
						{
							OFFSET 0.000000 0.000000 0.000000
						}
					}
				}
				JOINT lclavicle
				{
					OFFSET 0.071702 0.114000 -0.018898
					CHANNELS 3 Zrotation Yrotation Xrotation
					JOINT lshoulder
					{
						OFFSET 0.122921 0.045205 -0.019046
						CHANNELS 3 Zrotation Yrotation Xrotation
						JOINT lelbow
						{
							OFFSET 0.255332 -0.015649 -0.022946
							CHANNELS 3 Zrotation Yrotation Xrotation
							JOINT lwrist
							{
								OFFSET 0.265709 0.012698 -0.007375
								CHANNELS 3 Zrotation Yrotation Xrotation
								End Site
								{
									OFFSET 0.000000 0.000000 0.000000
								}
							}
						}
					}
				}
				JOINT rclavicle
				{
					OFFSET -0.082954 0.112472 -0.023707
					CHANNELS 3 Zrotation Yrotation Xrotation
					JOINT rshoulder
					{
						OFFSET -0.113228 0.046853 -0.008472
						CHANNELS 3 Zrotation Yrotation Xrotation
						JOINT relbow
						{
							OFFSET -0.260127 -0.014369 -0.031269
							CHANNELS 3 Zrotation Yrotation Xrotation
							JOINT rwrist
							{
								OFFSET -0.269108 0.006794 -0.006027
								CHANNELS 3 Zrotation Yrotation Xrotation
								End Site
								{
									OFFSET 0.000000 0.000000 0.000000
								}
							}
						}
					}
				}
			}
		}
	}
}
MOTION
Frames: 13
Frame Time: 0.033333
-0.191385 1.079940 1.014859 -4.246219 0.085433 85.993693 -2.983551 0.429710 4.721681 -1.649679 -5.988458 4.823208 5.488711 13.348948 -15.648237 0.000000 -0.000000 0.000000 5.328530 2.813912 -1.591014 0.027247 2.865620 16.075638 0.545188 -6.551570 -19.990051 0.000000 -0.000000 0.000000 -1.215354 -0.484461 10.556433 1.666530 0.214629 -1.617956 0.262084 -1.392212 4.376552 3.663778 6.168770 -1.862647 -5.494248 -1.049293 19.778511 -32.024444 7.228340 0.330224 -57.707656 -6.918369 9.109288 16.146358 -35.481036 -4.205565 2.906975 -4.071753 -8.860637 32.554213 -1.268058 0.112637 55.067340 5.013057 17.554648 -16.987903 27.213684 -7.087363 2.027962 3.110309 -4.175007 
-0.192166 1.079486 1.014751 -4.194814 -0.155945 86.168607 -3.259039 0.296319 4.611187 -1.555910 -6.078264 4.739429 5.488583 13.523512 -15.570690 0.000000 -0.000000 0.000000 5.074774 2.952024 -1.725511 0.156481 2.933885 16.090391 0.660271 -6.743840 -20.030165 0.000000 -0.000000 0.000000 -1.286780 -0.754887 10.476102 1.536852 0.105417 -1.562657 0.139945 -1.341663 4.440657 3.602963 6.283483 -1.853755 -5.572771 -0.977347 19.882600 -31.959242 7.349980 0.229144 -57.766210 -7.037447 9.184831 16.209417 -35.564029 -4.176734 2.751274 -4.094383 -9.331475 32.463658 -1.240518 0.118919 55.298917 5.090344 17.710453 -17.189822 27.031000 -7.082613 2.140591 3.072606 -4.299676 
-0.193667 1.078674 1.014708 -4.209786 -0.171406 86.237716 -3.179589 0.381322 4.624111 -1.544610 -6.185672 4.692673 5.477180 13.575231 -15.589044 0.000000 -0.000000 0.000000 5.088438 2.952279 -1.713383 0.257739 3.046443 16.079621 0.578471 -6.748946 -20.039585 0.000000 -0.000000 0.000000 -1.199380 -0.745908 10.425897 1.521289 0.089716 -1.503305 0.087696 -1.424021 4.483988 3.569219 6.337187 -1.740299 -5.621542 -0.914023 19.994764 -31.874602 7.212731 0.367119 -57.801251 -7.079918 9.270113 15.965066 -35.667356 -4.070856 3.124846 -3.948176 -9.504677 32.385384 -1.244577 0.090867 55.181112 5.030322 17.740712 -16.929081 27.067406 -7.039053 1.751830 3.039674 -4.463093 
-0.195771 1.077366 1.014560 -4.323049 -0.330972 86.294663 -3.173723 0.527795 4.627603 -1.612855 -6.137933 4.726127 5.429408 13.516327 -15.700565 0.000000 -0.000000 0.000000 5.041053 2.809554 -1.759284 0.258109 3.170574 16.221387 0.629207 -6.535139 -20.206716 0.000000 -0.000000 0.000000 -1.370572 -0.680471 10.569508 1.526472 0.090640 -1.528712 0.152278 -1.562685 4.453070 3.541319 6.498761 -1.606395 -5.648570 -0.742317 20.065425 -31.936662 7.268326 0.367130 -57.856570 -7.039425 9.245472 16.170490 -35.683141 -4.134835 3.193006 -3.958407 -9.302163 32.400489 -1.313530 0.078645 55.234200 5.022989 17.646259 -17.045462 26.984406 -7.222811 1.798979 3.009923 -4.555229 
-0.197234 1.076696 1.014404 -4.572354 -0.328652 86.375586 -3.091948 0.373011 4.629257 -1.626622 -5.915180 4.690191 5.486955 13.628456 -15.725533 0.000000 -0.000000 0.000000 5.083423 2.900970 -1.820074 0.384700 3.318279 16.260009 0.772895 -6.377751 -20.223114 0.000000 -0.000000 0.000000 -1.287656 -0.692708 10.528185 1.512023 0.087646 -1.441133 0.066607 -1.482975 4.463175 3.556382 6.616291 -1.604250 -5.715839 -0.640496 20.086284 -31.901193 7.230704 0.400915 -57.819733 -7.014070 9.302345 16.063609 -35.654846 -3.930173 2.872704 -4.097072 -9.445617 32.434889 -1.345623 0.067855 55.199325 5.131124 17.698398 -16.970308 26.936601 -6.961046 1.919347 2.970225 -4.493060 
-0.199360 1.075751 1.014658 -4.828964 -0.242831 86.479287 -2.975369 0.549143 4.472091 -1.475324 -5.812253 4.904514 5.395192 13.672993 -15.853608 0.000000 -0.000000 0.000000 5.194766 2.806279 -1.846625 0.467186 3.252395 16.195533 0.920837 -5.988721 -20.391731 0.000000 -0.000000 0.000000 -1.112526 -0.699571 10.617678 1.484631 0.064555 -1.484229 0.036543 -1.444790 4.442952 3.501116 6.747823 -1.422108 -5.741352 -0.565173 19.991333 -31.949911 7.339852 0.305097 -57.854326 -6.961178 9.206511 16.063288 -35.479112 -3.917042 2.662953 -4.091610 -9.293451 32.535483 -1.379476 0.078869 55.227678 5.214299 17.546603 -17.182532 26.810879 -7.152792 2.054569 3.059895 -4.358510 
-0.201332 1.074535 1.014717 -5.258079 -0.335426 86.546461 -2.905417 0.555602 4.587187 -1.579708 -5.573147 4.759050 5.387473 13.725461 -15.838603 0.000000 -0.000000 0.000000 4.967598 2.656376 -1.770409 0.742811 3.256595 16.046681 0.930601 -5.588942 -20.418193 0.000000 -0.000000 0.000000 -1.165361 -0.537399 10.660849 1.443270 0.141174 -1.454740 0.052819 -1.470436 4.442678 3.554676 6.716154 -1.354085 -5.721167 -0.569773 20.116078 -31.883715 7.311408 0.380190 -57.960179 -6.892706 9.188596 16.183257 -35.338068 -4.097531 3.012054 -3.958210 -9.175726 32.563981 -1.387875 0.131807 55.147995 5.282794 17.497471 -17.089435 26.898059 -7.128625 1.936623 3.034694 -4.418157 
-0.203595 1.073524 1.015114 -5.619436 -0.347965 86.791980 -2.848248 0.539888 4.314227 -1.511262 -5.323802 4.999570 5.307433 13.740335 -15.908785 0.000000 -0.000000 0.000000 5.154394 2.721263 -1.791636 0.583800 3.545482 15.727353 1.058157 -5.405021 -20.288493 0.000000 -0.000000 0.000000 -1.193941 -0.507319 10.570988 1.480098 0.146449 -1.468304 0.082797 -1.364295 4.371631 3.433259 6.760833 -1.175886 -5.719083 -0.503464 20.127990 -31.806050 7.387964 0.360215 -57.941664 -6.757715 9.189273 15.982035 -35.156425 -3.901117 3.012082 -3.992233 -8.846618 32.495605 -1.386445 0.270300 55.137865 5.289331 17.527886 -16.949078 27.052482 -7.012037 2.043166 3.034723 -4.448498 
-0.205698 1.072725 1.015267 -6.043040 -0.397732 87.094792 -2.714507 0.737868 3.942332 -1.725261 -5.266083 5.237451 5.398197 13.876598 -16.022007 0.000000 -0.000000 0.000000 5.033522 2.772686 -2.087869 0.883540 3.678523 15.776360 1.017712 -4.983011 -20.294052 0.000000 -0.000000 0.000000 -1.231292 -0.583656 10.484393 1.497121 0.159926 -1.526100 0.076097 -1.222534 4.299925 3.404831 6.907701 -0.987841 -5.738906 -0.396357 20.032236 -31.741650 7.506230 0.398502 -57.810604 -6.485183 9.175631 15.858127 -35.410933 -3.801797 2.733069 -3.857887 -9.324866 32.460744 -1.377367 0.469054 55.163433 5.485109 17.423199 -16.917539 27.126833 -6.928218 1.961391 3.056395 -4.603610 
-0.208267 1.070865 1.015096 -6.395137 -0.400996 86.993566 -2.563901 0.941832 4.160748 -1.783477 -5.291422 5.343530 5.380490 13.940764 -16.245692 0.000000 -0.000000 0.000000 5.118834 2.557504 -1.853761 1.016864 3.970967 15.794449 0.851897 -4.661695 -20.424942 0.000000 -0.000000 0.000000 -1.217329 -0.397767 10.566439 1.529821 0.208080 -1.282545 0.215744 -1.301886 4.454180 3.349552 7.110481 -1.024752 -5.796523 -0.305086 20.102680 -31.704353 7.202706 0.499545 -57.975679 -6.569529 9.123669 15.909454 -35.137777 -3.915741 3.184898 -3.880857 -9.206124 32.371284 -1.227825 0.465098 55.132427 5.620698 17.374887 -16.921970 27.317981 -6.962479 1.605666 3.008106 -4.624270 
-0.209942 1.069899 1.014686 -6.482983 -0.488796 87.126040 -2.602512 0.823946 3.932883 -1.760930 -5.250135 5.663459 5.431740 14.103792 -16.388321 0.000000 -0.000000 0.000000 5.080638 2.641814 -1.876369 1.098721 3.961861 15.710012 0.655180 -4.773875 -20.394855 0.000000 -0.000000 0.000000 -1.181249 -0.505003 10.399356 1.569462 0.136217 -1.135300 0.142876 -1.346005 4.637254 3.270234 7.123061 -0.973985 -5.931393 -0.279353 20.166267 -31.744845 7.094888 0.564887 -57.807916 -6.563107 9.164582 16.015148 -35.073967 -3.863906 2.828507 -3.946959 -9.481779 32.396780 -1.085602 0.483772 55.084115 5.824839 17.431381 -16.967068 27.330233 -6.928376 1.825910 3.025653 -4.819180 
-0.212558 1.068975 1.014189 -6.641570 -0.211939 87.271163 -2.143545 0.109612 3.715694 -1.911747 -4.669037 6.010922 5.390527 14.397241 -16.630951 0.000000 -0.000000 0.000000 5.570260 2.878230 -1.973356 1.071991 3.919670 15.758050 0.601492 -4.767084 -20.396113 0.000000 -0.000000 0.000000 -0.760708 -0.488416 10.386316 1.631553 0.078265 -1.108876 -0.004897 -1.332314 4.684839 3.318949 7.207288 -0.886243 -5.996714 -0.254801 20.231537 -31.686675 7.176670 0.557453 -57.976463 -6.603129 9.179478 16.365971 -34.960021 -3.741272 2.583200 -3.896730 -9.290777 32.391436 -1.207012 0.423092 55.188941 6.015384 17.376138 -17.123073 27.242802 -6.969031 1.940267 3.056595 -4.765441 
-0.214718 1.067888 1.014092 -6.657379 -0.132212 87.416026 -2.043407 0.244361 3.385371 -1.711840 -4.770283 6.572061 5.285968 14.357026 -16.924876 0.000000 -0.000000 0.000000 5.706807 2.737610 -2.053013 1.170397 3.976763 15.763268 0.661009 -4.556946 -20.497914 0.000000 -0.000000 0.000000 -0.633840 -0.498290 10.554073 1.688460 0.073599 -1.304166 0.095635 -1.418586 4.749468 3.254772 7.150121 -0.849120 -6.035944 -0.203710 20.377598 -31.783529 7.223332 0.469518 -57.975249 -6.558514 9.160781 16.259172 -34.929588 -3.744701 2.833459 -3.854763 -9.197481 32.232437 -1.148196 0.418830 55.053220 5.867475 17.374664 -16.849642 27.501288 -6.904503 1.656199 3.112600 -4.759312 
